<svg xmlns="http://www.w3.org/2000/svg" xmlns:xlink="http://www.w3.org/1999/xlink" width="400" zoomAndPan="magnify" viewBox="0 0 300 104.999996" height="140" preserveAspectRatio="xMidYMid meet" version="1.0"><defs><g/><clipPath id="9dbd5eb455"><path d="M 277.300781 52.5 L 289.5 52.5 L 289.5 64.699219 L 277.300781 64.699219 Z M 277.300781 52.5 " clip-rule="nonzero"/></clipPath><clipPath id="01f972a8ef"><path d="M 283.398438 52.5 C 280.03125 52.5 277.300781 55.230469 277.300781 58.601562 C 277.300781 61.96875 280.03125 64.699219 283.398438 64.699219 C 286.769531 64.699219 289.5 61.96875 289.5 58.601562 C 289.5 55.230469 286.769531 52.5 283.398438 52.5 Z M 283.398438 52.5 " clip-rule="nonzero"/></clipPath><clipPath id="b15f9d6aa6"><path d="M 176 72.222656 L 283 72.222656 L 283 75.222656 L 176 75.222656 Z M 176 72.222656 " clip-rule="nonzero"/></clipPath></defs><g fill="#000000" fill-opacity="1"><g transform="translate(0.0383104, 66.188409)"><g><path d="M 22.109375 0.683594 C 24.839844 0.683594 27.429688 0.136719 29.886719 -0.75 L 35.484375 -0.75 L 35.484375 -16.582031 L 23.0625 -16.582031 L 23.0625 -15.832031 L 27.566406 -15.832031 L 27.566406 -1.160156 C 25.453125 -0.273438 23.472656 0 22.109375 -0.203125 C 15.148438 -0.820312 12.761719 -8.460938 12.761719 -19.039062 C 12.761719 -30.09375 15.148438 -37.191406 22.792969 -37.734375 C 24.976562 -37.871094 27.023438 -37.324219 28.589844 -36.164062 C 31.253906 -33.980469 30.230469 -30.910156 29.410156 -29.273438 C 28.113281 -26.816406 26.816406 -26.269531 26.816406 -26.269531 C 26.816406 -23.746094 29.070312 -21.769531 31.046875 -21.769531 C 34.1875 -21.769531 35.757812 -24.976562 35.757812 -27.910156 C 35.757812 -33.230469 30.84375 -38.691406 22.109375 -38.691406 C 10.851562 -38.621094 1.707031 -29.820312 1.707031 -18.96875 C 1.707031 -8.121094 10.851562 0.683594 22.109375 0.683594 Z M 22.109375 0.683594 "/></g></g></g><g fill="#000000" fill-opacity="1"><g transform="translate(39.196967, 66.188409)"><g><path d="M 3.410156 0 L 13.375 0 L 13.375 -42.308594 L 3.410156 -42.308594 Z M 3.410156 0 "/></g></g></g><g fill="#000000" fill-opacity="1"><g transform="translate(55.979247, 66.188409)"><g><path d="M 16.785156 0.683594 C 25.113281 0.683594 31.867188 -5.800781 31.867188 -13.921875 C 31.867188 -21.972656 25.113281 -28.453125 16.785156 -28.453125 C 8.460938 -28.453125 1.707031 -21.972656 1.707031 -13.921875 C 1.707031 -5.800781 8.460938 0.683594 16.785156 0.683594 Z M 16.785156 0 C 13.035156 0 11.667969 -6.003906 11.667969 -13.921875 C 11.667969 -21.835938 13.035156 -27.839844 16.785156 -27.839844 C 20.335938 -27.839844 21.902344 -21.835938 21.902344 -13.921875 C 21.902344 -6.003906 20.609375 0 16.785156 0 Z M 16.785156 0 "/></g></g></g><g fill="#000000" fill-opacity="1"><g transform="translate(89.543805, 66.188409)"><g><path d="M 17.46875 0.613281 C 25.519531 0.613281 31.59375 -5.050781 31.59375 -14.398438 C 31.59375 -22.3125 25.726562 -28.386719 18.289062 -28.386719 C 16.308594 -28.386719 14.328125 -27.773438 13.304688 -26.816406 L 13.304688 -42.308594 L 3.410156 -42.308594 L 3.410156 0 C 4.300781 -0.339844 6.140625 -0.957031 8.53125 -0.75 C 12.964844 -0.339844 13.238281 0.613281 17.46875 0.613281 Z M 16.511719 -0.136719 C 14.671875 -0.136719 13.304688 -1.707031 13.304688 -4.230469 L 13.304688 -25.65625 C 14.195312 -26.75 15.421875 -27.429688 16.511719 -27.429688 C 20.128906 -27.429688 21.359375 -21.902344 21.359375 -14.398438 C 21.359375 -6.890625 19.855469 -0.136719 16.511719 -0.136719 Z M 16.511719 -0.136719 "/></g></g></g><g fill="#000000" fill-opacity="1"><g transform="translate(122.835479, 66.188409)"><g><path d="M 9.894531 0.683594 C 13.578125 0.683594 17.332031 -2.117188 18.902344 -4.707031 C 19.242188 -1.636719 21.769531 0.683594 24.976562 0.683594 C 28.523438 0.683594 31.390625 -2.183594 31.390625 -5.730469 L 30.84375 -5.800781 C 30.707031 -3.820312 30.367188 -3.480469 29.886719 -3.480469 C 29 -3.480469 28.796875 -4.570312 28.796875 -5.800781 L 28.796875 -17.128906 C 28.796875 -20.539062 27.363281 -23.199219 25.042969 -25.113281 C 22.382812 -27.296875 18.765625 -28.453125 14.398438 -28.453125 C 8.050781 -28.453125 2.933594 -25.179688 2.933594 -21.015625 C 2.933594 -18.492188 4.503906 -15.898438 8.050781 -16.242188 C 10.234375 -16.445312 11.875 -18.355469 11.875 -19.652344 C 11.875 -19.652344 9.691406 -20.199219 9.691406 -23.40625 C 9.691406 -26.613281 11.875 -27.703125 14.328125 -27.703125 C 16.855469 -27.703125 18.832031 -26 18.832031 -22.792969 L 18.832031 -17.878906 C 9.347656 -13.375 1.707031 -12.898438 1.707031 -5.867188 C 1.707031 -2.183594 5.1875 0.683594 9.894531 0.683594 Z M 14.464844 -3.207031 C 12.554688 -3.207031 11.191406 -5.1875 11.191406 -7.300781 C 11.191406 -12.144531 14.125 -14.535156 18.832031 -17.265625 L 18.832031 -5.390625 C 17.671875 -3.957031 16.308594 -3.207031 14.464844 -3.207031 Z M 14.464844 -3.207031 "/></g></g></g><g fill="#000000" fill-opacity="1"><g transform="translate(155.9225, 66.188409)"><g><path d="M 3.410156 0 L 13.375 0 L 13.375 -42.308594 L 3.410156 -42.308594 Z M 3.410156 0 "/></g></g></g><g fill="#000000" fill-opacity="1"><g transform="translate(172.704779, 66.188409)"><g><path d="M 16.785156 0.683594 C 25.113281 0.683594 31.867188 -5.800781 31.867188 -13.921875 C 31.867188 -21.972656 25.113281 -28.453125 16.785156 -28.453125 C 8.460938 -28.453125 1.707031 -21.972656 1.707031 -13.921875 C 1.707031 -5.800781 8.460938 0.683594 16.785156 0.683594 Z M 16.785156 0 C 13.035156 0 11.667969 -6.003906 11.667969 -13.921875 C 11.667969 -21.835938 13.035156 -27.839844 16.785156 -27.839844 C 20.335938 -27.839844 21.902344 -21.835938 21.902344 -13.921875 C 21.902344 -6.003906 20.609375 0 16.785156 0 Z M 16.785156 0 "/></g></g></g><g fill="#000000" fill-opacity="1"><g transform="translate(206.269337, 66.188409)"><g><path d="M 3.410156 0 L 13.375 0 L 13.375 -21.496094 C 14.195312 -22.65625 16.105469 -24.632812 16.648438 -25.113281 C 19.175781 -27.296875 21.699219 -26.886719 21.699219 -23.132812 L 21.699219 0 L 31.664062 0 L 31.664062 -22.929688 C 31.664062 -26 28.523438 -28.933594 23.816406 -28.933594 C 19.242188 -28.933594 15.421875 -25.316406 13.375 -22.65625 L 13.375 -27.839844 L 3.410156 -27.839844 Z M 3.410156 0 "/></g></g></g><g fill="#000000" fill-opacity="1"><g transform="translate(241.334757, 66.188409)"><g><path d="M 16.855469 0.683594 C 24.15625 0.683594 28.660156 -4.367188 30.09375 -10.984375 L 29.34375 -11.121094 C 27.910156 -6.824219 24.632812 -3.820312 20.8125 -3.820312 C 15.625 -3.820312 11.875 -8.667969 11.53125 -17.332031 L 29.273438 -17.332031 C 29.273438 -24.496094 24.15625 -28.589844 16.855469 -28.589844 C 8.53125 -28.589844 1.707031 -22.039062 1.707031 -13.988281 C 1.707031 -5.867188 8.53125 0.683594 16.855469 0.683594 Z M 11.53125 -18.015625 C 11.601562 -23.542969 13.785156 -27.839844 16.445312 -27.839844 C 19.105469 -27.839844 20.128906 -23.542969 20.128906 -18.015625 Z M 11.53125 -18.015625 "/></g></g></g><g clip-path="url(#9dbd5eb455)"><g clip-path="url(#01f972a8ef)"><path fill="#6f3081" d="M 277.300781 52.5 L 289.5 52.5 L 289.5 64.699219 L 277.300781 64.699219 Z M 277.300781 52.5 " fill-opacity="1" fill-rule="nonzero"/></g></g><g clip-path="url(#b15f9d6aa6)"><path fill="#6f3081" d="M 176.109375 73.6875 C 176.109375 72.875 228.65625 72.222656 229.5 72.222656 C 230.34375 72.222656 282.863281 72.875 282.863281 73.6875 C 282.863281 74.503906 230.351562 75.15625 229.5 75.15625 C 228.648438 75.15625 176.109375 74.5 176.109375 73.6875 Z M 176.109375 73.6875 " fill-opacity="1" fill-rule="nonzero"/></g></svg>