<svg width="924" height="178" viewBox="0 0 924 178" fill="none" xmlns="http://www.w3.org/2000/svg">
<g clip-path="url(#clip0_97_88)">
<path d="M58.9383 175.575H24.1559V88.8667H0.461426V60.6362H24.155V40.5482C24.155 16.7439 34.6347 -0.328369 69.323 -0.328369C76.6596 -0.328369 88.1777 1.1504 88.1777 1.1504V27.3639H76.0799C63.7531 27.3639 58.9402 31.1135 58.9402 41.4796V60.6362H87.7162L85.1537 88.8667H58.9393L58.9383 175.575ZM138.748 58.3802C138.241 58.3802 137.719 58.3987 137.203 58.4116C104.951 58.4116 90.1947 82.6719 90.1947 117.11C90.1947 160.493 109.336 177.856 137.455 177.856C153.544 177.856 164.114 171.084 170.538 158.447V175.587H203.621V60.6482H170.538V78.3242C165.293 66.9519 154.427 58.515 138.748 58.3802ZM147.16 85.5399C160.706 85.5399 168.836 94.9886 168.836 111.06L168.868 127.475C168.868 138.308 162.152 150.981 147.16 150.981C124.11 150.981 124.726 126.093 124.726 117.803C124.726 89.9199 137.007 85.5399 147.16 85.5399ZM216.982 118.124C216.982 104.157 216.314 58.455 275.856 58.455C299.757 58.455 309.737 66.0547 309.737 66.0547L301.716 90.9344C301.716 90.9344 291.749 85.4458 278.761 85.4458C262.126 85.4458 251.512 95.0892 251.512 112.056L251.53 124.222C251.53 140.526 261.772 151.409 278.795 151.409C290.627 151.409 301.532 145.869 301.532 145.869L309.533 170.229C309.533 170.229 300.408 177.876 276.023 177.876C219.329 177.876 216.983 136.873 216.983 118.124H216.982ZM503.716 58.4116C535.969 58.4116 550.958 82.6719 550.958 117.11C550.958 160.493 531.816 177.856 503.696 177.856C487.608 177.856 475.715 171.085 469.29 158.447V175.587L436.624 175.574V3.1664L471.307 0.141477V76.767C476.313 63.3612 492.763 58.4116 503.716 58.4116ZM493.992 85.5399C480.446 85.5399 471.307 94.9886 471.307 111.06L471.275 127.475C471.255 138.308 477.604 150.981 493.992 150.981C517.041 150.981 516.425 126.093 516.425 117.803C516.425 89.9199 504.146 85.5399 493.992 85.5399ZM369.917 58.5067C333.335 58.5067 314.022 78.4516 314.022 113.896V120.481C314.022 166.485 341.143 178.329 373.477 178.329C404.905 178.329 419.13 169.538 419.13 169.538L412.64 146.129C412.64 146.129 395.907 153.249 377.635 153.249C358.694 153.249 350.548 148.421 348.46 130.218H421.903V111.438C421.903 72.9898 400.229 58.5058 369.916 58.5058L369.917 58.5067ZM370.798 81.9473C383.461 81.9473 391.666 89.7122 391.216 107.721H348.523C349.264 88.767 358.112 81.9473 370.798 81.9473ZM620.116 58.3489C582.549 58.3489 562.772 79.5187 562.772 117.456C562.772 169.509 596.863 177.887 620.178 177.887C654.31 177.887 677.018 159.512 677.018 117.929C677.018 74.6486 651.485 58.3489 620.116 58.3489ZM619.643 85.6341C636.161 85.6341 642.707 97.9969 642.707 112.069V124.168C642.707 141.215 633.548 151.076 619.58 151.076C606.517 151.076 597.336 141.852 597.336 124.168V112.069C597.336 93.2089 608.261 85.6341 619.643 85.6341ZM746.114 58.3489C708.547 58.3489 688.77 79.5187 688.77 117.456C688.77 169.509 722.861 177.887 746.176 177.887C780.307 177.887 803.016 159.512 803.016 117.929C803.016 74.6486 777.483 58.3489 746.114 58.3489ZM745.641 85.6341C762.16 85.6341 768.704 97.9969 768.704 112.069V124.168C768.704 141.215 759.545 151.076 745.578 151.076C732.515 151.076 723.334 141.852 723.334 124.168V112.069C723.334 93.2089 734.259 85.6341 745.641 85.6341ZM816.123 175.575V3.1664L850.907 0.1424V115.701L885.417 60.6372H922.152L886.152 117.668L923.538 175.575H886.699L850.907 119.347V175.575H816.123Z" fill="#383838"/>
</g>
<defs>
<clipPath id="clip0_97_88">
<rect width="924" height="178" fill="white"/>
</clipPath>
</defs>
</svg>
