<svg width="652" height="128" viewBox="0 0 652 128" fill="none" xmlns="http://www.w3.org/2000/svg">
<path d="M233.5 28.0999H249.9V100.8H233.5V69.9999H206V100.9H189.6V28.2H206V55.9999H233.5V28.0999ZM312.7 98.9999C310 99.7999 306.6 100.5 302.4 101.2C298.2 101.9 293.8 102.2 289.2 102.2C284.5 102.2 280.6 101.6 277.5 100.3C274.4 98.9999 271.9 97.2999 270.1 94.9999C268.3 92.6999 267 89.9999 266.2 86.8999C265.4 83.6999 265 80.2999 265 76.4999V45.7999H280.6V74.7C280.6 79.7 281.3 83.3999 282.6 85.5999C283.9 87.7999 286.4 88.9999 290.1 88.9999C291.2 88.9999 292.4 88.8999 293.7 88.7999C294.8 88.6999 295.9 88.5999 297.1 88.3999V45.7999H312.7V98.9999ZM378.7 73.2999C378.7 77.6999 378.1 81.6999 376.8 85.2999C375.5 88.8999 373.6 91.8999 371.2 94.3999C368.7 96.8999 365.7 98.9 362.2 100.2C358.6 101.6 354.6 102.2 350 102.2C348 102.2 346 102.1 344.1 101.9C342.1 101.7 340 101.5 338 101.2C336.1 100.9 334.2 100.6 332.3 100.2C330.7 99.9 329.1 99.4999 327.5 98.9999V28.2L343.1 25.7V46.8999C344.9 46.0999 346.7 45.4999 348.6 45.0999C350.5 44.6999 352.5 44.4999 354.7 44.4999C358.6 44.4999 362.1 45.1999 365.1 46.4999C368.1 47.8999 370.6 49.7999 372.7 52.2999C374.7 54.7999 376.3 57.7999 377.3 61.3999C378.2 64.9999 378.7 68.8999 378.7 73.2999ZM362.8 72.7999C362.8 62.6999 359.1 57.7 351.7 57.7C350.1 57.7 348.5 57.8999 346.9 58.2999C345.3 58.6999 344 59.1999 343.1 59.8999V88.2999C343.9 88.3999 344.8 88.6 346 88.7C347.2 88.8 348.5 88.8999 349.9 88.8999C354.2 88.8999 357.4 87.3999 359.6 84.4999C361.7 81.5999 362.8 77.6999 362.8 72.7999ZM406.6 89.5999C409.5 89.5999 411.5 89.2999 412.7 88.7999C413.9 88.1999 414.5 87.1999 414.5 85.4999C414.5 84.1999 413.7 83.1 412.2 82.2C410.7 81.3 408.3 80.1999 405.2 78.9999C402.8 78.0999 400.5 77.1 398.5 76.2C396.5 75.2 394.8 74 393.4 72.7C392 71.3 390.9 69.6999 390.1 67.7999C389.3 65.8999 388.9 63.5999 388.9 60.9999C388.9 55.7999 390.8 51.7 394.7 48.7C398.5 45.7 403.8 44.2 410.5 44.2C413.9 44.2 417.1 44.4999 420.2 45.0999C423.3 45.6999 425.7 46.2999 427.5 46.9999L424.8 59.2C422.9 58.5 420.9 57.9999 418.9 57.4999C416.8 56.9999 414.4 56.7999 411.7 56.7999C406.8 56.7999 404.4 58.1999 404.4 60.8999C404.4 61.4999 404.5 62.0999 404.7 62.5999C404.9 63.0999 405.3 63.5999 406 63.9999C406.6 64.4999 407.5 64.8999 408.6 65.4999C409.7 65.9999 411.1 66.6 412.7 67.2C416.1 68.5 419 69.6999 421.2 70.9999C423.4 72.1999 425.2 73.5999 426.5 74.9999C427.8 76.3999 428.7 77.9999 429.2 79.7999C429.7 81.4999 430 83.5999 430 85.8999C430 91.2999 428 95.4999 423.9 98.2999C419.8 101.1 414 102.5 406.5 102.5C401.6 102.5 397.5 102.1 394.3 101.2C391 100.4 388.8 99.6999 387.5 99.0999L390.1 86.3999C392.8 87.3999 395.5 88.2999 398.3 88.8999C401.2 89.2999 403.9 89.5999 406.6 89.5999ZM441.2 28.2999L456.8 25.7999V45.7H475.6V58.7H456.8V78.0999C456.8 81.3999 457.4 83.9999 458.5 85.9999C459.7 87.9999 462 88.8999 465.5 88.8999C467.2 88.8999 468.9 88.6999 470.7 88.3999C472.5 88.0999 474.1 87.5999 475.6 87.0999L477.8 99.2999C475.9 100.1 473.8 100.7 471.5 101.3C469.2 101.9 466.4 102.1 463 102.1C458.7 102.1 455.2 101.5 452.4 100.4C449.6 99.1999 447.4 97.5999 445.7 95.5999C444 93.4999 442.8 90.9999 442.2 88.0999C441.5 85.1999 441.2 81.8999 441.2 78.2999V28.2999ZM506 44.2C510.6 44.2 514.5 44.6999 517.5 45.7999C520.6 46.7999 523 48.3999 524.9 50.2999C526.8 52.2999 528.1 54.5999 528.8 57.3999C529.6 60.1999 530 63.3 530 66.7V99.2C527.8 99.7 524.6 100.3 520.7 100.9C516.7 101.6 511.9 101.9 506.2 101.9C502.6 101.9 499.4 101.6 496.5 101C493.6 100.4 491.1 99.2999 489 97.8999C486.9 96.4999 485.3 94.5999 484.2 92.2999C483.1 89.9999 482.5 87.1999 482.5 83.7999C482.5 80.5999 483.1 77.8999 484.4 75.5999C485.7 73.3999 487.4 71.6 489.6 70.2C491.8 68.9 494.3 67.8999 497.1 67.2999C500 66.6999 502.9 66.3999 505.8 66.3999C507.8 66.3999 509.6 66.5 511.2 66.7C512.8 66.9 514.1 67.0999 515 67.3999V65.9999C515 63.2999 514.2 61.1999 512.6 59.5999C511 57.9999 508.2 57.2 504.2 57.2C501.5 57.2 498.9 57.3999 496.3 57.7999C493.7 58.1999 491.5 58.6999 489.6 59.3999L487.6 46.7999C488.5 46.4999 489.6 46.1999 491 45.8999C492.4 45.5999 493.9 45.2999 495.5 45.0999C497.2 44.7999 498.9 44.5999 500.6 44.4999C502.4 44.2999 504.2 44.2 506 44.2ZM507.3 89.9999C508.8 89.9999 510.3 89.9999 511.7 89.8999C513.1 89.7999 514.2 89.6999 515.1 89.5999V77.7C514.5 77.6 513.5 77.3999 512.3 77.2999C511.2 77.1999 510 77.0999 508.8 77.0999C507.3 77.0999 505.9 77.1999 504.7 77.3999C503.4 77.5999 502.3 77.8999 501.3 78.3999C500.3 78.8999 499.5 79.5999 499 80.3999C498.4 81.1999 498.2 82.2999 498.2 83.4999C498.2 85.9999 499 87.5999 500.7 88.5999C502.2 89.4999 504.4 89.9999 507.3 89.9999ZM568.2 25.9999C571.1 25.9999 573.8 26.2999 576.3 26.8999C578.7 27.4999 580.6 28.0999 582 28.5999L579 41.0999C577.5 40.4999 576 40 574.4 39.7C572.8 39.4 571.2 39.2 569.8 39.2C567.9 39.2 566.3 39.4999 565 39.9999C563.7 40.4999 562.7 41.2 562 42.2C561.3 43.1 560.7 44.1999 560.4 45.4999C560.1 46.7999 559.9 48.0999 559.9 49.5999V52.2999H579.2V65.2999H559.9V100.9H544.3V49.3999C544.3 42.2999 546.3 36.5999 550.3 32.3999C554.3 28.0999 560.3 25.9999 568.2 25.9999ZM612.1 25.9999C615 25.9999 617.7 26.2999 620.2 26.8999C622.6 27.4999 624.5 28.0999 625.9 28.5999L622.9 41.0999C621.4 40.4999 619.9 40 618.3 39.7C616.7 39.4 615.1 39.2 613.7 39.2C611.8 39.2 610.2 39.4999 608.9 39.9999C607.6 40.4999 606.6 41.2 605.9 42.2C605.2 43.1 604.6 44.1999 604.3 45.4999C604 46.7999 603.8 48.0999 603.8 49.5999V52.2999H623.1V65.2999H603.8V100.9H588.2V49.3999C588.2 42.2999 590.2 36.5999 594.2 32.3999C598.3 28.0999 604.2 25.9999 612.1 25.9999Z" fill="#383838"/>
<path d="M41.3001 110.9L69.8001 127.4C71.4001 128.3 73.4001 127.9 74.6001 126.5C78.2001 122.2 83.6001 119.4 89.7001 119.4C95.8001 119.4 101.2 122.2 104.8 126.5C106 127.9 108 128.4 109.6 127.4L138.2 110.8C140.1 109.7 140.6 107.2 139.4 105.4C138 103.3 136.5 101.4 134.9 99.5C130.6 94.5 125.4 90.5 119.7 87.2L115.9 85L115.7 84.9C115.5 84.8 115.3 84.7 115 84.6C113.8 84.1 112.4 84.3 111.5 85.3C106.1 91.2 98.3001 94.9 89.7001 94.9C81.1001 94.9 73.3001 91.2 67.9001 85.3C67.0001 84.3 65.6001 84.1 64.5001 84.6L60.0001 87.2C52.8001 91.3 46.5001 96.8 41.6001 103.4C41.1001 104.1 40.6001 104.8 40.1001 105.5C38.8001 107.4 39.4001 109.9 41.3001 110.9Z" fill="#383838"/>
<path d="M45.8999 17C44.2999 17.9 43.5999 19.9 44.2999 21.6C46.2999 26.9 45.9999 33 42.8999 38.3C39.7999 43.6 34.6999 46.9 29.0999 47.8C27.2999 48.1 25.8999 49.6 25.8999 51.5V84.3C25.8999 86.4 27.6999 88.2 29.8999 88C38.2999 87.5 46.4999 85.1001 53.8999 81.2001L57.3999 79.2001C58.2999 78.6001 59.2999 78 60.1999 77.4C61.2999 76.7 61.6999 75.3 61.3999 74.1C59.0999 66.5 59.7999 58.1 64.0999 50.7C68.3999 43.3 75.4999 38.5 83.1999 36.7C84.3999 36.4 85.3999 35.4 85.4999 34.1C85.5999 32.6 85.6999 31.1 85.7999 29.5V27.2C85.6999 18.6 83.5999 10 79.8999 2.30002C78.9999 0.400023 76.4999 -0.299953 74.6999 0.700047L45.8999 17Z" fill="#383838"/>
<path d="M136.4 38.3C133.3 33 133 26.9 135 21.6C135.6 19.9 135 17.9 133.4 17L104.7 0.599989C102.8 -0.500011 100.4 0.199995 99.5001 2.2C95.7001 10 93.7001 18.5 93.6001 27.1V29.4C93.6001 30.9 93.7001 32.4 93.9001 34C94.0001 35.3 95.0001 36.3 96.2001 36.6C104 38.3 111 43.1 115.3 50.6C119.6 58 120.3 66.5 118 74C117.6 75.2 118.1 76.6 119.2 77.3C120.1 77.9 121 78.5 122 79.1L125.5 81.1C132.9 85 141.1 87.4 149.5 87.9C151.6 88 153.4 86.3 153.4 84.2V51.4C153.4 49.6 152.1 48 150.2 47.7C144.6 46.8 139.4 43.5 136.4 38.3Z" fill="#383838"/>
</svg>
