<svg width="924" height="262" viewBox="0 0 924 262" fill="none" xmlns="http://www.w3.org/2000/svg">
<g clip-path="url(#clip0_98_90)">
<path d="M47.9922 0.983687C29.0923 8.89244 8.30976 31.2122 1.75015 59.2857C-6.57222 94.825 28.028 109.833 30.855 104.937C34.1815 99.1289 24.6352 97.1795 22.6858 78.752C20.1776 54.9225 31.2277 28.2988 45.1717 16.6166C47.7727 14.4811 47.6465 17.4947 47.6465 23.05C47.6465 33.0687 47.0877 122.705 47.0877 141.419C47.0877 166.752 46.0499 174.729 44.1339 182.605C42.2509 190.615 39.2043 196.017 41.4995 198.119C44.1005 200.441 55.1506 194.913 61.557 185.971C69.2208 175.261 71.9216 162.388 72.4205 148.418C72.9858 131.593 72.9529 104.843 72.9858 89.6155C72.9858 75.6117 73.2054 34.6719 72.7663 10.024C72.64 3.99731 55.8755 -2.31633 47.9922 0.983687ZM919.367 133.976C916.666 133.976 915.382 136.803 914.344 141.546C910.765 158.091 907 161.823 902.13 161.823C896.702 161.823 891.832 153.634 890.548 137.242C889.577 124.369 889.73 100.633 890.987 77.0227C891.24 72.1864 889.916 67.3896 876.917 62.6466C871.302 60.6374 863.166 57.6238 859.121 67.4165C847.659 95.0181 843.201 116.992 842.131 125.879C842.106 126.345 841.538 126.412 841.439 125.347C840.787 118.215 839.277 105.249 839.09 77.9941C839.024 72.7253 837.926 68.1679 832.025 64.4628C828.227 62.0808 816.671 57.8099 812.493 62.8662C808.914 67.0104 804.743 78.1268 800.379 91.3124C796.86 102.05 794.412 109.334 794.412 109.334C794.412 109.334 794.437 80.3821 794.505 69.3923C794.505 65.2476 791.677 63.8705 790.833 63.6176C786.967 62.487 779.337 60.6374 776.137 60.6374C772.152 60.6374 771.208 62.8662 771.208 66.0993C771.208 66.505 770.549 104.179 770.549 130.523V134.228C768.38 146.349 761.229 162.801 753.472 162.801C745.715 162.801 742.043 155.922 742.043 124.529C742.043 106.221 742.608 98.2512 742.861 84.9993C743.014 77.3685 743.326 71.5009 743.3 70.1507C743.234 66.0993 736.169 64.0237 732.902 63.2718C729.609 62.487 726.749 62.234 724.493 62.3273C721.353 62.5199 719.125 64.589 719.125 67.4829V71.8736C715.073 65.4736 708.507 61.0101 704.116 59.7258C692.375 56.2402 680.094 59.3466 670.833 72.2792C663.489 82.5844 659.058 94.2263 657.335 110.964C656.045 123.211 656.457 135.612 658.746 146.096C655.985 157.931 650.896 162.801 645.341 162.801C637.238 162.801 631.404 149.609 632.063 126.784C632.535 111.783 635.515 101.265 638.808 86.0037C640.225 79.5039 639.061 76.1181 636.207 72.8181C633.599 69.8643 628.011 68.3276 620.008 70.1772C614.32 71.5278 606.13 72.9713 598.686 74.0754C598.686 74.0754 599.125 72.2792 599.504 69.1129C601.42 52.5011 583.366 53.8517 577.618 59.1605C574.165 62.3273 571.81 66.0659 570.932 72.7851C569.521 83.4625 578.217 88.4849 578.217 88.4849C575.363 101.544 568.39 118.621 561.139 130.962C557.274 137.588 554.32 142.458 550.495 147.667C550.46 145.751 550.46 143.801 550.46 141.892C550.394 114.417 550.74 92.7893 550.899 84.9993C551.059 77.3685 551.372 71.654 551.372 70.3034C551.305 67.3497 549.582 66.1921 545.936 64.8085C542.737 63.5577 538.938 62.6466 535.013 62.3273C530.083 61.9546 527.07 64.589 527.163 67.6959V71.8736C523.085 65.4736 516.519 61.0101 512.188 59.7258C500.413 56.2402 488.139 59.3466 478.878 72.2792C471.561 82.5844 466.724 96.9939 465.341 110.805C464.09 123.744 464.309 134.667 466.066 143.901C464.183 153.128 458.814 162.801 452.727 162.801C444.97 162.801 440.54 155.922 440.54 124.529C440.54 106.221 441.105 98.2512 441.391 84.9993C441.544 77.3685 441.83 71.5009 441.797 70.1507C441.763 66.0993 434.705 64.0237 431.406 63.2718C427.986 62.46 424.999 62.2075 422.737 62.3273C419.724 62.5798 417.622 65.2476 417.622 67.2898V71.8736C413.544 65.4736 406.978 61.0101 402.613 59.7258C390.872 56.2402 378.691 59.4135 369.364 72.2792C363.277 80.6685 358.347 89.9887 355.806 110.651C355.114 116.619 354.768 122.201 354.801 127.416C352.38 142.231 341.676 159.315 332.947 159.315C327.798 159.315 322.902 149.389 322.902 128.201C322.902 100.008 324.658 59.8191 324.971 55.9273C324.971 55.9273 336.021 55.7343 338.19 55.7078C343.685 55.6744 348.707 55.8011 356.025 55.4219C359.731 55.2358 363.277 42.0168 359.445 40.3538C357.748 39.6284 345.568 38.9698 340.731 38.8769C336.653 38.7836 325.377 37.9389 325.377 37.9389C325.377 37.9389 326.388 11.2819 326.608 8.4878C326.794 6.09935 323.78 4.90888 322.024 4.18341C317.779 2.36726 313.981 1.51606 309.524 0.60449C303.277 -0.679292 300.483 0.578046 299.951 5.81346C299.132 13.7631 298.693 37.0608 298.693 37.0608C294.11 37.0608 278.57 36.1427 274.012 36.1427C269.781 36.1427 265.191 54.3572 271.065 54.5767C277.818 54.8297 289.526 55.0826 297.31 55.2952C297.31 55.2952 296.964 96.1487 296.964 108.736V112.627C292.666 134.947 277.625 147.008 277.625 147.008C280.858 132.219 274.265 121.136 262.337 111.783C257.94 108.296 249.278 101.73 239.572 94.6054C239.572 94.6054 245.193 89.0507 250.183 77.9342C253.702 70.0509 253.862 60.9831 245.193 59.0008C230.877 55.7078 219.102 66.2255 215.556 77.4617C212.855 86.1299 214.272 92.5962 219.634 99.2821L220.858 100.792C217.658 107.006 213.201 115.388 209.462 121.888C199.011 139.943 191.128 154.199 185.194 154.199C180.424 154.199 180.484 139.723 180.484 126.159C180.484 114.477 181.362 96.8672 182.054 78.6592C182.273 72.6584 179.26 69.2057 174.21 66.0993C171.13 64.2163 164.597 60.5111 160.799 60.5111C155.151 60.5111 138.759 61.2626 123.285 106.001C121.335 111.656 117.504 121.921 117.504 121.921L117.85 68.1081C117.85 66.8507 117.191 65.6602 115.654 64.8085C113.046 63.398 106.048 60.5111 99.8943 60.5111C96.9072 60.5111 95.4303 61.8947 95.4303 64.6224L94.9313 148.764C94.9313 155.171 95.0845 162.641 95.7167 165.908C96.3419 169.174 97.3797 171.842 98.637 173.439C99.8943 174.982 101.365 176.173 103.753 176.705C105.981 177.177 118.255 178.714 118.888 174.037C119.672 168.416 119.699 162.362 126.139 139.664C136.184 104.371 149.25 87.1677 155.403 81.0407C156.501 79.9764 157.725 79.9101 157.659 81.6728C157.379 89.4229 156.468 108.736 155.842 125.154C154.179 169.141 162.149 177.27 173.612 177.27C182.34 177.27 194.647 168.575 207.866 146.602C216.122 132.878 224.098 119.473 229.873 109.773C233.831 113.472 238.348 117.464 242.838 121.735C253.296 131.621 256.716 141.041 254.427 149.962C252.697 156.8 246.138 163.832 234.489 156.993C231.097 155.011 229.653 153.474 226.233 151.212C224.411 149.988 221.583 149.642 219.92 150.9C215.523 154.199 213.041 158.37 211.598 163.553C210.247 168.609 215.303 171.243 220.545 173.565C225.036 175.607 234.709 177.397 240.889 177.616C264.971 178.434 284.25 166.001 297.656 133.976C300.077 161.637 310.275 177.304 328.018 177.304C339.913 177.304 351.814 161.949 357.03 146.848C358.5 153.002 360.729 158.337 363.59 162.894C377.281 184.555 403.837 179.911 417.149 161.51C421.294 155.796 421.926 153.754 421.926 153.754C423.868 171.123 437.872 177.237 445.882 177.237C454.889 177.237 464.123 172.973 470.616 158.337C471.401 159.941 472.219 161.45 473.164 162.894C486.822 184.555 513.379 179.911 526.724 161.51C527.323 160.599 527.888 159.847 528.354 159.122L528.766 170.551C528.766 170.551 521.136 177.523 516.459 181.821C495.896 200.694 480.256 215.01 479.098 231.649C477.654 252.904 494.858 260.787 507.917 261.818C521.735 262.923 533.603 255.292 540.881 244.554C547.287 235.134 551.498 214.884 551.186 194.853C551.06 186.817 550.866 176.645 550.68 165.688C557.931 157.339 566.094 146.722 573.571 134.295C581.761 120.79 590.489 102.609 594.946 88.452C594.946 88.452 602.577 88.5183 610.68 88.0129C613.287 87.8533 614.039 88.3921 613.534 90.2746C612.968 92.5633 603.302 129.897 612.123 154.765C618.184 171.776 631.775 177.27 639.878 177.27C649.324 177.27 658.372 170.112 663.202 159.502C663.8 160.666 664.399 161.823 665.091 162.894C678.749 184.555 705.213 179.878 718.651 161.51C721.698 157.339 723.394 153.754 723.394 153.754C726.281 171.749 740.285 177.304 748.288 177.304C756.671 177.304 764.58 173.884 771.02 158.683C771.273 165.376 771.679 170.838 772.37 172.56C772.776 173.632 775.164 174.949 776.861 175.607C784.518 178.434 792.308 177.084 795.162 176.486C797.171 176.079 798.742 174.51 798.934 170.365C799.493 159.502 799.147 141.26 802.447 127.669C808.002 104.937 813.151 96.1158 815.599 91.7515C816.956 89.2967 818.52 88.8911 818.553 91.4656C818.646 96.7075 818.932 112.095 821.094 132.818C822.637 148.012 824.74 157.02 826.37 159.881C830.953 168.01 836.668 168.389 841.284 168.389C844.238 168.389 850.392 167.571 849.853 162.388C849.574 159.881 850.046 144.274 855.474 121.861C859.054 107.199 864.988 93.9803 867.123 89.1435C867.942 87.3543 868.287 88.7379 868.287 89.0173C867.815 99.0959 866.81 132.093 870.889 150.114C876.483 174.576 892.583 177.304 898.204 177.304C910.166 177.304 919.998 168.196 923.291 144.214C924.109 138.433 922.913 133.976 919.367 133.976ZM417.369 119.159C416.71 131.84 414.228 142.457 410.277 150.147C403.052 164.118 388.836 168.515 382.582 148.391C378.032 133.855 379.569 114.01 381.485 103.3C384.245 87.4137 391.25 76.1775 402.174 77.2083C413.35 78.3129 418.812 92.7224 417.369 119.159ZM526.911 119.346C526.285 131.307 523.179 143.362 519.786 150.147C512.788 164.211 498.152 168.608 492.091 148.391C487.954 134.54 488.925 116.678 490.994 105.436C493.668 90.8065 500.101 77.2083 511.69 77.2083C522.96 77.2083 528.514 89.5821 526.911 119.346ZM529.772 201.099C529.612 222.987 526.193 242.139 518.841 247.727C508.357 255.637 494.26 249.67 497.181 233.724C499.755 219.594 511.969 205.184 529.805 187.568C529.805 187.568 529.866 191.586 529.772 201.099ZM718.905 119.472C718.272 132.631 715.352 142.896 711.746 150.147C704.741 164.211 690.238 168.575 684.051 148.391C680.692 137.368 680.532 118.967 682.954 103.619C685.402 87.979 692.281 76.1775 703.643 77.2083C714.88 78.2795 720.129 92.7224 718.905 119.472Z" fill="#383838"/>
</g>
<defs>
<clipPath id="clip0_98_90">
<rect width="924" height="262" fill="white"/>
</clipPath>
</defs>
</svg>
