<svg width="511" height="105" viewBox="0 0 511 105" fill="none" xmlns="http://www.w3.org/2000/svg">
<g clip-path="url(#clip0_98_112)">
<path d="M173.429 91.8858C162.537 91.8858 153.816 88.2971 147.261 81.1195C140.706 73.942 137.431 64.6057 137.431 53.1068C137.431 40.7537 140.769 30.8963 147.449 23.5386C154.125 16.1847 163.215 12.5059 174.714 12.5059C185.319 12.5059 193.864 16.079 200.344 23.2173C206.824 30.3596 210.065 39.6998 210.065 51.2301C210.065 63.7634 206.742 73.6717 200.101 80.955C193.461 88.2383 184.567 91.8858 173.429 91.8858ZM174.071 20.6472C166 20.6472 159.45 23.5582 154.411 29.3801C149.377 35.2021 146.858 42.8459 146.858 52.3075C146.858 61.7731 149.31 69.3855 154.223 75.1565C159.132 80.9236 165.534 83.8033 173.425 83.8033C181.852 83.8033 188.493 81.0568 193.351 75.5562C198.205 70.0633 200.634 62.3647 200.634 52.4721C200.634 42.3326 198.276 34.493 193.562 28.957C188.853 23.4132 182.353 20.6472 174.071 20.6472Z" fill="#383838"/>
<path d="M265.6 90.6008H256.817V81.9227H256.601C252.957 88.5635 247.316 91.8859 239.676 91.8859C226.606 91.8859 220.071 84.105 220.071 68.5314V35.7506H228.804V67.1367C228.804 78.7061 233.231 84.4929 242.089 84.4929C246.375 84.4929 249.901 82.9179 252.667 79.7561C255.434 76.5944 256.82 72.465 256.82 67.3522V35.7506H265.604L265.6 90.6008Z" fill="#383838"/>
<path d="M306.033 90.064C303.96 91.2119 301.23 91.78 297.837 91.78C288.23 91.78 283.427 86.4243 283.427 75.7089V43.2493H274V35.7505H283.427V22.3593L292.211 19.5188V35.7505H306.029V43.2493H292.211V74.1535C292.211 77.8324 292.834 80.4574 294.087 82.0284C295.337 83.6034 297.41 84.387 300.301 84.387C302.515 84.387 304.427 83.7836 306.033 82.5652V90.064Z" fill="#383838"/>
<path d="M30.8731 40.7263C28.6555 40.7263 26.8886 41.7685 25.5839 43.8489C24.2793 45.9292 23.625 48.6835 23.625 52.1116C23.625 55.5907 24.2793 58.3411 25.5839 60.3627C26.8886 62.3882 28.6007 63.3951 30.7163 63.3951C32.8986 63.3951 34.6303 62.4117 35.9075 60.445C37.1848 58.4782 37.8273 55.7474 37.8273 52.2566C37.8273 48.6169 37.2083 45.7843 35.9663 43.7587C34.7243 41.7371 33.0279 40.7263 30.8731 40.7263Z" fill="#383838"/>
<path d="M0 11.7536V91.5802L60.727 104.313V0L0 11.7536ZM40.6362 65.162C38.07 68.5392 34.7241 70.2318 30.5947 70.2318C26.571 70.2318 23.2957 68.5941 20.7608 65.3227C18.2299 62.0473 16.9605 57.7847 16.9605 52.5269C16.9605 46.9753 18.2455 42.4854 20.8196 39.0573C23.3936 35.6291 26.8022 33.9131 31.0452 33.9131C35.0532 33.9131 38.2972 35.5508 40.7694 38.8339C43.2455 42.1171 44.4835 46.4424 44.4835 51.8138C44.4874 57.3341 43.2024 61.7848 40.6362 65.162Z" fill="#383838"/>
<path d="M64.5664 22.1163V42.5206L71.6969 47.0105C71.885 47.0653 72.2924 47.0693 72.4805 47.0105L103.169 26.3202C103.169 23.8715 100.885 22.1163 99.5961 22.1163H64.5664Z" fill="#383838"/>
<path d="M64.5664 50.1331L71.074 54.6034C71.9908 55.2773 73.0956 54.6034 73.0956 54.6034C71.9947 55.2773 103.173 34.5674 103.173 34.5674V72.0692C103.173 76.1517 100.56 77.8638 97.6215 77.8638H64.5625V50.1331H64.5664Z" fill="#383838"/>
<path d="M326.378 90.6007H317.594V9.39502H326.378V90.6007Z" fill="#383838"/>
<path d="M364.342 91.8858C356.236 91.8858 349.764 89.3235 344.925 84.1989C340.087 79.0743 337.666 72.2807 337.666 63.8181C337.666 54.6033 340.185 47.4101 345.219 42.2307C350.254 37.0552 357.055 34.4655 365.623 34.4655C373.804 34.4655 380.186 36.9846 384.778 42.0191C389.362 47.0536 391.658 54.0352 391.658 62.9641C391.658 71.7127 389.186 78.7178 384.241 83.9873C379.293 89.253 372.664 91.8858 364.342 91.8858ZM364.985 41.8546C359.343 41.8546 354.881 43.7743 351.597 47.6138C348.31 51.4533 346.669 56.7464 346.669 63.4969C346.669 69.9966 348.33 75.1212 351.648 78.8706C354.967 82.62 359.414 84.4967 364.985 84.4967C370.662 84.4967 375.03 82.6592 378.086 78.9803C381.138 75.3053 382.662 70.075 382.662 63.2853C382.662 56.429 381.138 51.1438 378.086 47.4297C375.03 43.7116 370.662 41.8546 364.985 41.8546Z" fill="#383838"/>
<path d="M425.88 91.8858C417.774 91.8858 411.302 89.3235 406.463 84.1989C401.625 79.0743 399.204 72.2807 399.204 63.8181C399.204 54.6033 401.723 47.4101 406.757 42.2307C411.792 37.0552 418.593 34.4655 427.165 34.4655C435.342 34.4655 441.728 36.9846 446.316 42.0191C450.904 47.0536 453.2 54.0352 453.2 62.9641C453.2 71.7127 450.728 78.7178 445.779 83.9873C440.831 89.2569 434.198 91.8858 425.88 91.8858ZM426.523 41.8546C420.881 41.8546 416.415 43.7743 413.132 47.6138C409.845 51.4533 408.203 56.7464 408.203 63.4969C408.203 69.9966 409.864 75.1212 413.183 78.8706C416.501 82.62 420.948 84.4967 426.519 84.4967C432.196 84.4967 436.561 82.6592 439.616 78.9803C442.668 75.3053 444.196 70.075 444.196 63.2853C444.196 56.429 442.668 51.1438 439.616 47.4297C436.564 43.7116 432.2 41.8546 426.523 41.8546Z" fill="#383838"/>
<path d="M510.016 90.6007H497.695L473.482 64.2452H473.267V90.6007H464.483V9.39502H473.267V60.8719H473.482L496.515 35.7505H508.03L482.587 62.2118L510.016 90.6007Z" fill="#383838"/>
</g>
<defs>
<clipPath id="clip0_98_112">
<rect width="510.017" height="104.313" fill="white"/>
</clipPath>
</defs>
</svg>
