<svg width="924" height="244" viewBox="0 0 924 244" fill="none" xmlns="http://www.w3.org/2000/svg">
<path d="M295.757 184.129L307.286 157.352C319.745 166.65 336.295 171.485 352.659 171.485C364.746 171.485 372.37 166.836 372.37 159.769C372.184 140.058 300.034 155.492 299.476 106.029C299.29 80.9248 321.604 61.5856 353.217 61.5856C371.998 61.5856 390.779 66.2344 404.168 76.8338L393.383 104.169C381.11 96.359 365.862 90.7804 351.357 90.7804C341.502 90.7804 334.993 95.4292 334.993 101.38C335.179 120.719 407.887 110.12 408.631 157.352C408.631 183.014 386.874 201.051 355.634 201.051C332.762 201.051 311.749 195.659 295.757 184.129ZM738.142 147.682C732.377 157.724 721.592 164.604 709.133 164.604C690.724 164.604 675.847 149.728 675.847 131.318C675.847 112.909 690.724 98.0326 709.133 98.0326C721.592 98.0326 732.377 104.913 738.142 114.954L769.94 97.2888C758.039 76.09 735.167 61.5856 709.133 61.5856C670.641 61.5856 639.4 92.8259 639.4 131.318C639.4 169.811 670.641 201.051 709.133 201.051C735.353 201.051 758.039 186.733 769.94 165.348L738.142 147.682ZM424.623 3.75378H464.417V198.448H424.623V3.75378ZM785.56 3.75378V198.448H825.355V140.058L872.587 198.448H923.538L863.475 129.087L919.076 64.3749H870.356L825.355 118.116V3.75378H785.56ZM582.684 148.054C576.92 157.538 565.019 164.604 551.63 164.604C533.22 164.604 518.344 149.728 518.344 131.318C518.344 112.909 533.22 98.0326 551.63 98.0326C565.019 98.0326 576.92 105.471 582.684 115.14V148.054ZM582.684 64.3749V80.181C576.176 69.2097 559.998 61.5856 543.076 61.5856C508.117 61.5856 480.595 92.454 480.595 131.132C480.595 169.811 508.117 201.051 543.076 201.051C559.998 201.051 576.176 193.427 582.684 182.456V198.262H622.478V64.3749H582.684Z" fill="#383838"/>
<path d="M49.7394 147.868C49.7394 161.443 38.7681 172.414 25.1934 172.414C11.6188 172.414 0.647461 161.443 0.647461 147.868C0.647461 134.294 11.6188 123.322 25.1934 123.322H49.7394V147.868ZM62.0124 147.868C62.0124 134.294 72.9837 123.322 86.5583 123.322C100.133 123.322 111.104 134.294 111.104 147.868V209.233C111.104 222.808 100.133 233.779 86.5583 233.779C72.9837 233.779 62.0124 222.808 62.0124 209.233V147.868Z" fill="#383838"/>
<path d="M86.5582 49.3126C72.9836 49.3126 62.0123 38.3413 62.0123 24.7667C62.0123 11.192 72.9836 0.220703 86.5582 0.220703C100.133 0.220703 111.104 11.192 111.104 24.7667V49.3126H86.5582ZM86.5582 61.7716C100.133 61.7716 111.104 72.7429 111.104 86.3175C111.104 99.8922 100.133 110.863 86.5582 110.863H25.0074C11.4327 110.863 0.461426 99.8922 0.461426 86.3175C0.461426 72.7429 11.4327 61.7716 25.0074 61.7716H86.5582Z" fill="#383838"/>
<path d="M184.928 86.3175C184.928 72.7429 195.899 61.7716 209.474 61.7716C223.049 61.7716 234.02 72.7429 234.02 86.3175C234.02 99.8922 223.049 110.863 209.474 110.863H184.928V86.3175ZM172.655 86.3175C172.655 99.8922 161.684 110.863 148.109 110.863C134.534 110.863 123.563 99.8922 123.563 86.3175V24.7667C123.563 11.192 134.534 0.220703 148.109 0.220703C161.684 0.220703 172.655 11.192 172.655 24.7667V86.3175Z" fill="#383838"/>
<path d="M148.109 184.687C161.684 184.687 172.655 195.659 172.655 209.233C172.655 222.808 161.684 233.779 148.109 233.779C134.534 233.779 123.563 222.808 123.563 209.233V184.687H148.109ZM148.109 172.414C134.534 172.414 123.563 161.443 123.563 147.868C123.563 134.294 134.534 123.322 148.109 123.322H209.66C223.234 123.322 234.206 134.294 234.206 147.868C234.206 161.443 223.234 172.414 209.66 172.414H148.109Z" fill="#383838"/>
</svg>
