<svg width="924" height="216" viewBox="0 0 924 216" fill="none" xmlns="http://www.w3.org/2000/svg">
<g clip-path="url(#clip0_98_92)">
<path d="M74.9534 85.0524V76.6306C72.0298 76.1673 69.0768 75.9134 66.117 75.871C37.4634 75.8105 12.0946 94.3787 3.49007 121.711C-5.11418 149.043 5.04225 178.795 28.5635 195.16C10.9442 176.304 6.05181 148.853 16.0718 125.071C26.0917 101.288 49.1528 85.6153 74.9534 85.0524Z" fill="#25F4EE"/>
<path d="M76.5408 180.456C92.5619 180.434 105.731 167.813 106.432 151.807V8.97818H132.527C131.994 5.99375 131.74 2.96628 131.767 -0.0651855L96.0773 -0.0651855V142.626C95.4839 158.713 82.2839 171.455 66.186 171.482C61.3754 171.441 56.6433 170.258 52.3794 168.03C55.1427 171.859 58.7718 174.98 62.9707 177.139C67.1696 179.299 71.8192 180.435 76.5408 180.456ZM181.264 57.4394V49.5004C171.661 49.5037 162.27 46.6698 154.272 41.3544C161.283 49.5053 170.759 55.1516 181.264 57.4394Z" fill="#25F4EE"/>
<path d="M154.272 41.3544C146.394 32.3824 142.05 20.8492 142.054 8.90894H132.527C133.757 15.5106 136.32 21.7923 140.059 27.3707C143.798 32.9491 148.634 37.7071 154.272 41.3544ZM66.1175 111.561C52.3692 111.631 40.4334 121.05 37.1682 134.405C33.9028 147.76 40.1461 161.624 52.3109 168.03C45.7195 158.93 44.7883 146.902 49.9005 136.896C55.0131 126.889 65.3049 120.596 76.5415 120.604C79.5376 120.642 82.5131 121.107 85.3778 121.985V85.6733C82.4523 85.235 79.4995 85.0044 76.5415 84.9831H74.9536V112.596C72.074 111.824 69.0976 111.475 66.1175 111.561Z" fill="#FE2C55"/>
<path d="M181.264 57.4395V85.0524C163.486 85.018 146.169 79.3908 131.767 68.9678V141.521C131.691 177.725 102.321 207.034 66.117 207.034C52.6719 207.058 39.5505 202.909 28.563 195.16C46.8997 214.881 75.4368 221.373 100.5 211.525C125.564 201.676 142.047 177.494 142.053 150.565V78.2182C156.503 88.573 173.841 94.1269 191.619 94.0958V58.5439C188.138 58.5328 184.668 58.1628 181.264 57.4395Z" fill="#FE2C55"/>
<path d="M131.768 141.521V68.9676C146.214 79.3308 163.555 84.8857 181.333 84.8453V57.232C170.83 55.0141 161.332 49.4414 154.272 41.3544C148.634 37.7071 143.798 32.9491 140.059 27.3707C136.32 21.7923 133.757 15.5106 132.527 8.90894H106.433V151.807C105.911 164.556 97.3715 175.575 85.1568 179.263C72.9417 182.951 59.7312 178.498 52.2417 168.168C40.0772 161.762 33.8339 147.898 37.099 134.543C40.3644 121.188 52.3 111.769 66.0483 111.699C69.0451 111.726 72.0222 112.191 74.8847 113.08V85.4665C48.939 85.9059 25.7036 101.634 15.6556 125.559C5.60722 149.483 10.644 177.085 28.4945 195.919C39.5904 203.413 52.7308 207.295 66.1175 207.033C102.321 207.033 131.691 177.725 131.768 141.521Z" fill="#383838"/>
<path d="M304.763 207.119H267.031V84.4732H229.371L229.299 50.8538H345.597L334.919 84.4732H304.763V207.119ZM611.595 207.119H573.935V84.4732H536.131L536.059 50.8538H655.026L644.348 84.4732H611.595V207.119ZM352.667 100.562H389.966V207.119H352.956L352.667 100.562ZM453.02 155.247L441.982 165.925V207.119H404.756V50.4209H441.982V123.215L478.92 87.1426H523.362L476.684 132.45L528.989 207.119H487.938L453.02 155.247ZM847.653 155.247L836.975 165.925V207.119H799.676L799.316 50.4209H836.975V123.215L873.841 87.1426H918.282L871.605 132.45L923.549 207.119H882.498L847.653 155.247Z" fill="#383838"/>
<path d="M371.352 88.3691C381.712 88.3691 390.11 79.971 390.11 69.6114C390.11 59.2518 381.712 50.8538 371.352 50.8538C360.993 50.8538 352.595 59.2518 352.595 69.6114C352.595 79.971 360.993 88.3691 371.352 88.3691Z" fill="#383838"/>
<path d="M650.264 143.344C650.276 110.06 675.88 82.3819 709.062 79.7839H703.507C669.784 81.751 643.445 109.672 643.445 143.452C643.445 177.232 669.784 205.153 703.507 207.12H709.062C675.797 204.515 650.163 176.71 650.264 143.344Z" fill="#25F4EE"/>
<path d="M723.563 79.5674H717.936C751.011 82.2992 776.462 109.94 776.462 143.127C776.462 176.314 751.011 203.955 717.936 206.687H723.563C758.786 206.687 787.339 178.133 787.339 142.911C787.339 107.688 758.786 79.1345 723.563 79.1345V79.5674Z" fill="#FE2C55"/>
<path d="M713.463 174.366C696.33 174.366 682.441 160.476 682.441 143.343C682.441 126.21 696.33 112.321 713.463 112.321C730.596 112.321 744.485 126.21 744.485 143.343C744.446 160.46 730.58 174.326 713.463 174.366ZM713.463 79.5674C678.24 79.5674 649.687 108.121 649.687 143.343C649.687 178.566 678.24 207.119 713.463 207.119C748.686 207.119 777.239 178.566 777.239 143.343C777.239 126.429 770.52 110.207 758.559 98.247C746.599 86.2866 730.378 79.5674 713.463 79.5674Z" fill="#383838"/>
</g>
<defs>
<clipPath id="clip0_98_92">
<rect width="924" height="216" fill="white"/>
</clipPath>
</defs>
</svg>
