<?xml version="1.0" encoding="utf-8"?>
<!-- Generator: Adobe Illustrator 25.2.1, SVG Export Plug-In . SVG Version: 6.00 Build 0)  -->
<svg version="1.1" id="Layer_1" xmlns="http://www.w3.org/2000/svg" xmlns:xlink="http://www.w3.org/1999/xlink" x="0px" y="0px"
	 viewBox="0 0 700 700" style="enable-background:new 0 0 700 700;" xml:space="preserve">
<style type="text/css">
	.st0{fill-rule:evenodd;clip-rule:evenodd;fill:#FFFFFF;}
</style>
<g>
	<path class="st0" d="M349.9,0c-4.5,0.1-8.1,3.8-8,8.3v118.5c-0.4,2.6,0.4,5.2,2.3,7c0.1,0.1,0.1,0.1,0.2,0.2
		c1.8,1.8,4.4,2.6,6.9,2.2c113.5,0.7,205.2,92.7,205.2,206.3c0,0.9-0.1,2.1-0.1,3.6l-0.1,2.3h0c-0.2,0.8-0.2,1.7-0.1,2.5
		c-4.4,109.8-94.3,197.4-205,198l0,0c-0.8-0.1-1.6-0.1-2.4,0c-110.7-0.6-200.5-88.3-204.9-198.1h0c0.1-0.9,0.1-1.9-0.1-2.8
		c-0.1-1.8-0.1-3.6-0.1-5.6c0-91,58.9-168.2,140.7-195.7c2.1-0.7,3.8-2.1,4.8-4.1c1-1.9,1.1-4.2,0.5-6.3c-0.7-2.1-2.2-3.8-4.1-4.7
		c-2-1-4.2-1.1-6.3-0.4c-88.1,29.6-151.4,112.7-151.8,210.4H8.3v0c-2.2,0-4.3,0.8-5.8,2.3C0.9,345.7,0,347.8,0,350s0.9,4.3,2.4,5.8
		c1.5,1.5,3.6,2.4,5.8,2.3H128c7.8,113,100,202.9,213.9,207v126.6c0,2.2,0.8,4.3,2.3,5.8s3.6,2.4,5.8,2.4s4.3-0.9,5.8-2.4
		c1.5-1.5,2.4-3.6,2.3-5.8V565.1c114-4.1,206.2-94,214-207h119.6h0c2.2,0,4.3-0.8,5.8-2.3c1.5-1.5,2.4-3.6,2.4-5.8s-0.9-4.3-2.4-5.8
		c-1.5-1.5-3.6-2.4-5.8-2.3h-119c-0.4-119.8-95.7-217.4-214.5-221.7V8.3c0-2.2-0.8-4.3-2.4-5.9C354.2,0.8,352.1,0,349.9,0L349.9,0z"
		/>
	<path class="st0" d="M350,251.6c-54.2,0-98.4,44.1-98.4,98.4s44.2,98.4,98.4,98.4c54.3,0,98.4-44.1,98.4-98.4
		S404.3,251.6,350,251.6L350,251.6z M350,267.9c45.5,0,82.1,36.6,82.1,82.1s-36.6,82.1-82.1,82.1c-45.4,0-82.1-36.6-82.1-82.1
		S304.6,267.9,350,267.9L350,267.9z"/>
</g>
</svg>
