<?xml version="1.0" encoding="utf-8"?>
<!-- Generator: Adobe Illustrator 25.2.1, SVG Export Plug-In . SVG Version: 6.00 Build 0)  -->
<svg version="1.1" id="Layer_1" xmlns="http://www.w3.org/2000/svg" xmlns:xlink="http://www.w3.org/1999/xlink" x="0px" y="0px"
	 viewBox="0 0 700 700" style="enable-background:new 0 0 700 700;" xml:space="preserve">
<style type="text/css">
	.st0{fill-rule:evenodd;clip-rule:evenodd;fill:#FFFFFF;}
</style>
<g>
	<path class="st0" d="M140.3,435.1c-72.7,0-131.8,59.4-131.8,132.4s59.1,132.4,131.8,132.4c73,0,132.1-59.4,132.1-132.4
		S213.2,435.1,140.3,435.1L140.3,435.1z M140.3,451.3c64.2,0,115.9,52,115.9,116.2s-51.7,116.2-115.9,116.2
		c-63.8,0-115.6-52-115.6-116.2S76.4,451.3,140.3,451.3L140.3,451.3z"/>
	<path class="st0" d="M566.9,68.5l-79,71.1c-3.2,2.8-3.5,8.3-0.6,11.5c2.8,3.2,8.3,3.5,11.5,0.6L568.2,89
		c9.3,65.7-0.2,108.5-20.2,138.4c-21.5,32.1-56.3,50.7-96.9,65.3s-86.9,25.1-129.6,42.5c-42.7,17.4-82.3,41.9-108.1,84.8
		c-2.2,3.6-0.9,8.9,2.8,11.1c3.6,2.2,8.9,0.9,11.1-2.8c23.4-38.9,59.2-61.5,100.2-78.2c41-16.7,86.8-27.2,128.8-42.3
		c42-15.1,80.6-34.9,105-71.4c21.6-32.2,31.2-76.5,24-139.2l62,66.1c2.6,4,8.9,4.8,12.3,1.5c3.5-3.2,3.1-9.6-0.7-12.4l-77.9-83.3
		C575.7,63.6,572.7,63.8,566.9,68.5L566.9,68.5z"/>
	<path class="st0" d="M498.9,489.4c-3.2,0.3-5.8,2.4-6.9,5.4c-1,3-0.2,6.3,2.1,8.5l90.3,90.6l-90.3,90.8v0c-1.8,1.4-2.9,3.6-3,5.9
		c-0.1,2.3,0.7,4.5,2.4,6.2c1.6,1.6,3.9,2.5,6.2,2.4c2.3-0.1,4.4-1.2,5.9-3l90.3-90.6l90.1,90.6c3.1,3.2,8.3,3.3,11.5,0.1
		c3.2-3.1,3.3-8.3,0.1-11.5l-90.3-90.8l90.3-90.6v0c2.4-2.3,3.2-6,1.8-9.1c-1.4-3.1-4.5-5-7.9-4.8c-2.1,0.1-4.1,1-5.6,2.5
		l-90.1,90.6l-90.3-90.6c-1.5-1.6-3.6-2.5-5.8-2.5C499.4,489.3,499.1,489.3,498.9,489.4L498.9,489.4z"/>
	<path class="st0" d="M6.7,0.2c-3,0.5-5.5,2.8-6.3,5.7c-0.9,2.9,0,6.1,2.3,8.2l90.1,90.6L2.6,195.3v0c-1.5,1.5-2.4,3.6-2.5,5.7
		c0,2.2,0.8,4.2,2.3,5.8c1.5,1.5,3.6,2.4,5.7,2.5c2.2,0,4.2-0.8,5.8-2.3l90.3-90.6l90.1,90.6h0c3.2,3.1,8.4,3.1,11.5-0.1
		c3.1-3.2,3.1-8.4-0.1-11.5l-90.1-90.6l90.1-90.6v0c2.4-2.3,3.1-5.9,1.8-8.9c-1.3-3.1-4.3-5.1-7.7-5c-2.1,0-4.1,0.8-5.6,2.3
		l-90.1,90.6L14,2.5h0C12.4,1,10.3,0.1,8.2,0.2C7.7,0.1,7.2,0.1,6.7,0.2L6.7,0.2z"/>
</g>
</svg>
