<?xml version="1.0" encoding="utf-8"?>
<!-- Generator: Adobe Illustrator 25.2.1, SVG Export Plug-In . SVG Version: 6.00 Build 0)  -->
<svg version="1.1" id="Layer_1" xmlns="http://www.w3.org/2000/svg" xmlns:xlink="http://www.w3.org/1999/xlink" x="0px" y="0px"
	 viewBox="0 0 700 700" style="enable-background:new 0 0 700 700;" xml:space="preserve">
<style type="text/css">
	.st0{fill-rule:evenodd;clip-rule:evenodd;fill:#FFFFFF;}
</style>
<g>
	<path class="st0" d="M389.7,268.8c0-53.8,43.6-97.4,97.4-97.4s97.4,43.6,97.4,97.4s-43.6,97.4-97.4,97.4S389.7,322.6,389.7,268.8z
		 M487.1,185.8c-45.8,0-83,37.2-83,83s37.2,83,83,83s83-37.2,83-83S532.9,185.8,487.1,185.8z"/>
	<path class="st0" d="M521.1,61.6c-0.7-3.3-3.7-5.6-7-5.6l-53.8,0c-3.4,0-6.3,2.3-7,5.6l-10.4,46.2l-38.1,15.8l-40-25.3
		c-2.9-1.8-6.6-1.4-9,1l-38.1,38.1c-2.4,2.4-2.8,6.1-1,9l25.3,40L326,224.5l-46.1,10.4c-3.3,0.7-5.6,3.7-5.6,7l0,53.8
		c0,3.4,2.3,6.3,5.6,7l46.2,10.4l15.8,38.2l-25.3,40c-1.8,2.9-1.4,6.6,1,9l38.1,38c2.4,2.4,6.1,2.8,9,1l40-25.2l38.2,15.8l10.4,46.1
		c0.7,3.3,3.7,5.6,7,5.6l53.8,0c3.4,0,6.3-2.3,7-5.6l10.4-46.2l38.2-15.8l40,25.3c2.8,1.8,6.6,1.4,9-1l38-38c2.4-2.4,2.8-6.1,1-9
		l-25.3-40l15.8-38.2l46.2-10.4c3.3-0.7,5.6-3.7,5.6-7l0-53.8c0-3.4-2.3-6.3-5.6-7l-46.2-10.4l-15.8-38.1l25.3-40
		c1.8-2.9,1.4-6.6-1-9l-38-38.1c-2.4-2.4-6.1-2.8-9-1l-40,25.3l-38.2-15.8L521.1,61.6z M456,114.6l10-44.2l42.3,0l10,44.2
		c0.5,2.3,2.1,4.2,4.3,5.1l45.1,18.7c2.2,0.9,4.6,0.7,6.6-0.6l38.3-24.2l29.9,29.9l-24.2,38.3c-1.3,2-1.5,4.4-0.6,6.6l18.7,45.1
		c0.9,2.2,2.8,3.8,5.1,4.3l44.2,10l0,42.3l-44.2,10c-2.3,0.5-4.2,2.1-5.1,4.3l-18.7,45.1c-0.9,2.2-0.7,4.6,0.6,6.6l24.2,38.3
		l-29.9,29.9l-38.3-24.2c-2-1.2-4.5-1.5-6.6-0.6L522.5,418c-2.2,0.9-3.8,2.8-4.3,5.1l-10,44.2l-42.3,0l-10-44.2
		c-0.5-2.3-2.1-4.2-4.3-5.1l-45.1-18.7c-2.2-0.9-4.6-0.7-6.6,0.6l-38.3,24.2l-29.9-29.9l24.2-38.3c1.2-2,1.5-4.5,0.6-6.6l-18.7-45.1
		c-0.9-2.2-2.8-3.8-5.1-4.3l-44.2-10l0-42.3l44.1-10c2.3-0.5,4.2-2.1,5.1-4.3l18.7-45.1c0.9-2.2,0.7-4.6-0.6-6.6l-24.2-38.3
		l29.9-29.9l38.3,24.2c2,1.2,4.5,1.5,6.6,0.6l45.1-18.7C453.9,118.7,455.5,116.9,456,114.6L456,114.6z"/>
	<path class="st0" d="M169.6,405.9c-37.9,0-68.6,30.7-68.6,68.6s30.7,68.6,68.6,68.6c37.9,0,68.6-30.7,68.6-68.6
		S207.4,405.9,169.6,405.9z M115.5,474.5c0-29.9,24.2-54.1,54.1-54.1c29.9,0,54.1,24.2,54.1,54.1s-24.2,54.1-54.1,54.1
		C139.7,528.6,115.5,504.4,115.5,474.5z"/>
	<path class="st0" d="M191.8,304.9l9.3,41.1l37.2,15.4l35.6-22.5l31.4,31.4l-22.5,35.6l15.4,37.1l41.1,9.3l0,44.4l-41.1,9.3
		l-15.4,37.2l22.5,35.6l-31.4,31.4l-35.6-22.5L201.1,603l-9.3,41.1l-44.4,0l-9.3-41.1L101,587.6l-35.6,22.5L34,578.7l22.5-35.6
		l-15.4-37.2L0,496.7l0-44.4l41-9.3l15.4-37.2L34,370.3l31.4-31.4l35.6,22.5l37.2-15.4l9.3-41.1L191.8,304.9z M245.9,373.6
		l25.8-16.3l15.1,15.1l-16.3,25.8c-2.5,4-2.9,8.9-1.1,13.2l15.4,37.2c1.8,4.3,5.6,7.5,10.1,8.6l29.8,6.7l0,21.3l-29.8,6.7
		c-4.6,1-8.4,4.2-10.2,8.6l-15.4,37.2c-1.8,4.3-1.4,9.3,1.1,13.2l16.3,25.9l-15.1,15.1l-25.9-16.3c-4-2.5-8.9-2.9-13.2-1.1
		l-37.2,15.4c-4.3,1.8-7.5,5.6-8.5,10.1l-6.7,29.8l-21.3,0l-6.7-29.8c-1-4.6-4.2-8.4-8.6-10.2l-37.2-15.4c-4.3-1.8-9.3-1.4-13.2,1.1
		l-25.8,16.3l-15.1-15.1l16.3-25.8c2.5-4,2.9-8.9,1.1-13.2l-15.4-37.2c-1.8-4.3-5.6-7.5-10.2-8.6l-29.8-6.7l0-21.3l29.8-6.7
		c4.6-1,8.4-4.2,10.2-8.5l15.4-37.2c1.8-4.3,1.4-9.3-1.1-13.2l-16.3-25.8l15.1-15.1l25.8,16.3c4,2.5,8.9,2.9,13.2,1.1l37.2-15.4
		c4.3-1.8,7.5-5.6,8.6-10.2l6.7-29.8l21.3,0l6.7,29.8c1,4.6,4.2,8.4,8.6,10.2l37.2,15.4C237,376.5,242,376.1,245.9,373.6
		L245.9,373.6z"/>
</g>
</svg>
