<?xml version="1.0" encoding="utf-8"?>
<!-- Generator: Adobe Illustrator 25.2.1, SVG Export Plug-In . SVG Version: 6.00 Build 0)  -->
<svg version="1.1" id="Layer_1" xmlns="http://www.w3.org/2000/svg" xmlns:xlink="http://www.w3.org/1999/xlink" x="0px" y="0px"
	 viewBox="0 0 700 700" style="enable-background:new 0 0 700 700;" xml:space="preserve">
<style type="text/css">
	.st0{fill-rule:evenodd;clip-rule:evenodd;fill:#FFFFFF;}
</style>
<g>
	<path class="st0" d="M7.6,64.7c4.2,0,7.6,3.4,7.6,7.6v445.1c189.8-2.3,404.4-92.2,590.5-367.8l-75.6,13.9c-4.1,0.8-8.1-2-8.9-6.1
		c-0.8-4.1,2-8.1,6.1-8.9l93.2-17.1c2-0.4,4.1,0.1,5.8,1.3c1.7,1.2,2.8,3,3.1,5.1l13.3,89.4c0.6,4.2-2.3,8-6.4,8.6
		c-4.2,0.6-8-2.3-8.6-6.4l-10.4-69.9C428.9,437.8,210.2,530.3,15.2,532.6v87.5h57.1v-57.1c0-4.2,3.4-7.6,7.6-7.6
		c4.2,0,7.6,3.4,7.6,7.6v57.1h87.2l-0.9-77.9c0-4.2,3.3-7.6,7.5-7.7c4.2,0,7.6,3.3,7.7,7.5l0.9,78.1h87.3l-1.8-127.3
		c-0.1-4.2,3.3-7.7,7.5-7.7c4.2-0.1,7.7,3.3,7.7,7.5l1.8,127.6h87.3L377,460.5c-0.1-4.2,3.3-7.7,7.5-7.7c4.2-0.1,7.7,3.3,7.7,7.5
		l2.7,159.9h87.3l-3.7-237.7c-0.1-4.2,3.3-7.7,7.5-7.7c4.2-0.1,7.7,3.3,7.7,7.5l3.7,237.9h87.3l-4.7-349.9c-0.1-4.2,3.3-7.7,7.5-7.7
		c4.2-0.1,7.7,3.3,7.7,7.5l4.7,350.1h92.4c4.2,0,7.6,3.4,7.6,7.6c0,4.2-3.4,7.6-7.6,7.6H7.6c-4.2,0-7.6-3.4-7.6-7.6V72.3
		C0,68.1,3.4,64.7,7.6,64.7L7.6,64.7z"/>
</g>
</svg>
